<svg xmlns="http://www.w3.org/2000/svg" xmlns:xlink="http://www.w3.org/1999/xlink" version="1.1" x="0px" y="0px" viewBox="0 0 100 125" style="enable-background:new 0 0 100 100;" xml:space="preserve"><path d="M5.78,13.88c3.89-0.42,7.89,0.35,11.76,0.77c3.97,0.44,7.94,0.88,11.91,1.32c1.31,0.14,2.82,3.76,1.07,3.78  c-0.29,0-0.57,0-0.86,0.01c-0.2,0-0.4-0.06-0.6-0.16c-3.42-0.38-6.85-0.76-10.27-1.14c-2.27-0.25-4.58-0.62-6.89-0.79  c26.97,9.44,53.72,22.63,71.31,45.91c4.78,6.33,8.75,13.24,11.63,20.64c0.26,0.68,0.34,1.88-0.6,2.03  c-0.93,0.15-1.76-1.07-2.04-1.78C81.86,57.97,57.64,40.42,32.51,29.2c-6.59-2.94-13.34-5.51-20.16-7.89  c1.72,1.81,3.43,3.62,5.15,5.42c0.55,0.58,1.08,1.93,0.52,2.65c-0.61,0.8-1.59,0-2.06-0.49c-2.16-2.28-4.32-4.55-6.48-6.83  c-1.87-1.97-3.96-3.87-4.45-6.67C4.93,14.82,5.04,13.96,5.78,13.88z"/><text x="0" y="115" fill="#000000" font-size="5px" font-weight="bold" font-family="'Helvetica Neue', Helvetica, Arial-Unicode, Arial, Sans-serif">Created by kiddo</text><text x="0" y="120" fill="#000000" font-size="5px" font-weight="bold" font-family="'Helvetica Neue', Helvetica, Arial-Unicode, Arial, Sans-serif">from the Noun Project</text></svg>